<svg width="24" height="46" viewBox="0 0 24 46" fill="none" xmlns="http://www.w3.org/2000/svg">
<path d="M8.16671 0.958374H15.8334H8.16671ZM1.45837 19.1667H2.41671L4.38512 19.4945C9.42706 20.3336 14.573 20.3336 19.615 19.4945L21.5834 19.1667H22.5417M1.45837 32.5834H2.41671L4.38512 32.2556C9.42706 31.4165 14.573 31.4165 19.615 32.2556L21.5834 32.5834H22.5417M14.875 6.70837H9.12504C6.82189 7.86092 4.88492 9.63167 3.53091 11.8225C2.1769 14.0132 1.45929 16.5376 1.45837 19.113V41.2084C1.45837 42.225 1.86224 43.2001 2.58113 43.9189C3.30002 44.6378 4.27504 45.0417 5.29171 45.0417H18.7084C19.725 45.0417 20.7001 44.6378 21.4189 43.9189C22.1378 43.2001 22.5417 42.225 22.5417 41.2084V19.113C22.5408 16.5376 21.8232 14.0132 20.4692 11.8225C19.1152 9.63167 17.1782 7.86092 14.875 6.70837Z" fill="#F2E4FE"/>
<path d="M8.16671 0.958374H15.8334M1.45837 19.1667H2.41671L4.38512 19.4945C9.42706 20.3336 14.573 20.3336 19.615 19.4945L21.5834 19.1667H22.5417M1.45837 32.5834H2.41671L4.38512 32.2556C9.42706 31.4165 14.573 31.4165 19.615 32.2556L21.5834 32.5834H22.5417M14.875 6.70837H9.12504C6.82189 7.86092 4.88492 9.63167 3.53091 11.8225C2.1769 14.0132 1.45929 16.5376 1.45837 19.113V41.2084C1.45837 42.225 1.86224 43.2001 2.58113 43.9189C3.30002 44.6378 4.27504 45.0417 5.29171 45.0417H18.7084C19.725 45.0417 20.7001 44.6378 21.4189 43.9189C22.1378 43.2001 22.5417 42.225 22.5417 41.2084V19.113C22.5408 16.5376 21.8232 14.0132 20.4692 11.8225C19.1152 9.63167 17.1782 7.86092 14.875 6.70837Z" stroke="#382A4D" stroke-width="1.91667"/>
</svg>
