<svg width="46" height="46" viewBox="0 0 46 46" fill="none" xmlns="http://www.w3.org/2000/svg">
<path d="M17.25 35.9375C16.1891 35.9375 15.272 36.5197 14.7732 37.375H6.68008L10.4866 30.0553C10.8129 30.1343 11.1493 30.1875 11.5 30.1875C13.8776 30.1875 15.8125 28.2526 15.8125 25.875C15.8125 23.4974 13.8776 21.5625 11.5 21.5625C9.1224 21.5625 7.18752 23.4974 7.18752 25.875C7.18752 26.8511 7.52534 27.7409 8.07302 28.4639L3.03746 38.1513C2.92399 38.3703 2.86879 38.6148 2.87717 38.8613C2.88555 39.1078 2.95722 39.3481 3.0853 39.5589C3.21337 39.7697 3.39354 39.944 3.60847 40.065C3.8234 40.1861 4.06586 40.2498 4.31252 40.25H14.7732C15.272 41.1053 16.1891 41.6875 17.25 41.6875C18.0125 41.6875 18.7438 41.3846 19.283 40.8454C19.8221 40.3063 20.125 39.575 20.125 38.8125C20.125 38.05 19.8221 37.3187 19.283 36.7796C18.7438 36.2404 18.0125 35.9375 17.25 35.9375ZM11.5 24.4375C11.8701 24.4541 12.2196 24.6127 12.4757 24.8805C12.7317 25.1483 12.8747 25.5045 12.8747 25.875C12.8747 26.2455 12.7317 26.6017 12.4757 26.8695C12.2196 27.1373 11.8701 27.2959 11.5 27.3125C11.1188 27.3125 10.7531 27.1611 10.4836 26.8915C10.214 26.6219 10.0625 26.2562 10.0625 25.875C10.0625 25.4938 10.214 25.1281 10.4836 24.8585C10.7531 24.5889 11.1188 24.4375 11.5 24.4375ZM42.9626 38.1498L37.1551 26.979C37.392 26.4094 37.4394 25.7786 37.2902 25.18C37.1411 24.5813 36.8033 24.0465 36.3269 23.6546C35.8504 23.2627 35.2605 23.0345 34.6443 23.0036C34.0281 22.9727 33.4184 23.1409 32.9051 23.4833C32.3919 23.8256 32.0024 24.324 31.7942 24.9047C31.586 25.4855 31.5701 26.1178 31.7489 26.7082C31.9277 27.2987 32.2917 27.816 32.7871 28.1837C33.2825 28.5513 33.8831 28.7499 34.5 28.75C34.6078 28.75 34.7113 28.7299 34.8163 28.7169L39.32 37.375H32.798C32.5027 36.5365 31.955 35.81 31.2302 35.2952C30.5054 34.7804 29.639 34.5026 28.75 34.5C26.3724 34.5 24.4375 36.4349 24.4375 38.8125C24.4375 41.1901 26.3724 43.125 28.75 43.125C29.639 43.1224 30.5054 42.8446 31.2302 42.3298C31.955 41.815 32.5027 41.0885 32.798 40.25H41.6875C41.9346 40.25 42.1775 40.1864 42.3928 40.0652C42.6081 39.944 42.7885 39.7694 42.9167 39.5581C43.0448 39.3469 43.1164 39.1062 43.1244 38.8593C43.1325 38.6123 43.0767 38.3689 42.9626 38.1498ZM28.75 40.25C28.3799 40.2334 28.0304 40.0748 27.7744 39.807C27.5183 39.5392 27.3754 39.183 27.3754 38.8125C27.3754 38.442 27.5183 38.0858 27.7744 37.818C28.0304 37.5502 28.3799 37.3916 28.75 37.375C29.1201 37.3916 29.4696 37.5502 29.7257 37.818C29.9817 38.0858 30.1247 38.442 30.1247 38.8125C30.1247 39.183 29.9817 39.5392 29.7257 39.807C29.4696 40.0748 29.1201 40.2334 28.75 40.25ZM30.1875 11.5C29.8457 11.5038 29.5055 11.5482 29.1741 11.6322L24.2751 2.21375C24.0278 1.73506 23.5132 1.4375 23 1.4375C22.4868 1.4375 21.9722 1.73506 21.725 2.21231L16.1288 12.9706C16.0253 12.9576 15.9218 12.9375 15.8125 12.9375C15.1955 12.9373 14.5948 13.1356 14.0992 13.5031C13.6036 13.8706 13.2393 14.3878 13.0603 14.9782C12.8812 15.5687 12.8969 16.2011 13.1049 16.7819C13.313 17.3628 13.7024 17.8613 14.2156 18.2038C14.7288 18.5464 15.3386 18.7147 15.9548 18.6839C16.5711 18.6532 17.1611 18.425 17.6376 18.0331C18.1142 17.6412 18.452 17.1064 18.6012 16.5077C18.7504 15.909 18.7031 15.2782 18.4661 14.7085L23 5.9915L26.7605 13.2221C26.189 13.965 25.8779 14.8753 25.875 15.8125C25.875 18.1901 27.8099 20.125 30.1875 20.125C32.5651 20.125 34.5 18.1901 34.5 15.8125C34.5 13.4349 32.5651 11.5 30.1875 11.5ZM30.1875 17.25C29.8174 17.2334 29.4679 17.0748 29.2119 16.807C28.9558 16.5392 28.8129 16.183 28.8129 15.8125C28.8129 15.442 28.9558 15.0858 29.2119 14.818C29.4679 14.5502 29.8174 14.3916 30.1875 14.375C30.5576 14.3916 30.9071 14.5502 31.1632 14.818C31.4192 15.0858 31.5622 15.442 31.5622 15.8125C31.5622 16.183 31.4192 16.5392 31.1632 16.807C30.9071 17.0748 30.5576 17.2334 30.1875 17.25Z" fill="#382A4D"/>
</svg>
