<svg width="46" height="46" viewBox="0 0 46 46" fill="none" xmlns="http://www.w3.org/2000/svg">
<path d="M25.875 34.5C25.875 36.5334 25.0672 38.4834 23.6294 39.9212C22.1917 41.359 20.2416 42.1667 18.2083 42.1667C16.175 42.1667 14.2249 41.359 12.7871 39.9212C11.3494 38.4834 10.5416 36.5334 10.5416 34.5V3.83337H25.875V19.1667" fill="white"/>
<path d="M25.875 34.5C25.875 36.5334 25.0672 38.4834 23.6294 39.9212C22.1917 41.359 20.2416 42.1667 18.2083 42.1667C16.175 42.1667 14.2249 41.359 12.7871 39.9212C11.3494 38.4834 10.5416 36.5334 10.5416 34.5V3.83337H25.875V19.1667" stroke="#382A4D" stroke-width="2.875" stroke-linecap="round" stroke-linejoin="round"/>
<path d="M30.6667 20.125L30.1722 21.4609C29.5244 23.2127 29.2005 24.0887 28.5622 24.7269C27.922 25.3671 27.0461 25.691 25.2943 26.3388L23.9584 26.8333L25.2943 27.3278C27.0461 27.9757 27.922 28.2996 28.5603 28.9378C29.2005 29.578 29.5244 30.4539 30.1722 32.2057L30.6667 33.5417L31.1612 32.2057C31.809 30.4539 32.133 29.578 32.7712 28.9397C33.4114 28.2996 34.2873 27.9757 36.0391 27.3278L37.375 26.8333L36.0391 26.3388C34.2873 25.691 33.4114 25.3671 32.7731 24.7288C32.133 24.0887 31.809 23.2127 31.1612 21.4609L30.6667 20.125Z" stroke="#382A4D" stroke-width="2.875" stroke-linejoin="round"/>
<path d="M8.625 3.83337H27.7917H8.625ZM10.5417 15.3334H25.875H10.5417Z" fill="white"/>
<path d="M8.625 3.83337H27.7917M10.5417 15.3334H25.875" stroke="#382A4D" stroke-width="2.875" stroke-linecap="round" stroke-linejoin="round"/>
</svg>
