<svg width="24" height="24" viewBox="0 0 24 24" fill="none" xmlns="http://www.w3.org/2000/svg">
<path d="M19.745 13C20.4472 11.9906 20.8712 10.8139 20.9741 9.58857C21.0771 8.36319 20.8554 7.13232 20.3315 6.01985C19.8075 4.90737 18.9998 3.95255 17.9895 3.25149C16.9792 2.55044 15.8021 2.12788 14.5766 2.02637C13.3511 1.92485 12.1205 2.14796 11.0086 2.67322C9.89678 3.19849 8.94291 4.00739 8.24304 5.01848C7.54318 6.02958 7.12201 7.20721 7.02194 8.43282C6.92187 9.65843 7.14642 10.8888 7.673 12" stroke="black" stroke-width="1.5" stroke-linecap="round" stroke-linejoin="round"/>
<path d="M16 11.18C15.601 11.971 14.876 12.5 14.047 12.5C12.789 12.5 11.769 11.281 11.769 9.778V8.222C11.769 6.719 12.789 5.5 14.047 5.5C14.876 5.5 15.601 6.029 16 6.82M10.5 9H14.27" stroke="black" stroke-width="1.5" stroke-linecap="round"/>
<path d="M3 14H5.395C5.689 14 5.979 14.066 6.242 14.194L8.284 15.182C8.547 15.309 8.837 15.375 9.132 15.375H10.174C11.182 15.375 12 16.166 12 17.142C12 17.182 11.973 17.216 11.934 17.227L9.393 17.93C8.93705 18.056 8.45087 18.0119 8.025 17.806L5.842 16.75M12 16.5L16.593 15.089C16.9929 14.9663 17.4213 14.9731 17.817 15.1083C18.2128 15.2435 18.5558 15.5003 18.797 15.842C19.166 16.352 19.016 17.084 18.478 17.394L10.963 21.731C10.728 21.867 10.4678 21.9537 10.1982 21.9858C9.92866 22.018 9.65537 21.9949 9.395 21.918L3 20.02" stroke="black" stroke-width="1.5" stroke-linecap="round" stroke-linejoin="round"/>
</svg>
