<svg width="46" height="46" viewBox="0 0 46 46" fill="none" xmlns="http://www.w3.org/2000/svg">
<path d="M19.1667 31.625L24.9167 33.5416C24.9167 33.5416 39.2917 30.6666 41.2084 30.6666C43.125 30.6666 43.125 32.5833 41.2084 34.5C39.2917 36.4166 32.5834 42.1666 26.8334 42.1666C21.0834 42.1666 17.25 39.2916 13.4167 39.2916C9.58337 39.2916 3.83337 39.2916 3.83337 39.2916" stroke="#382A4D" stroke-width="3.83333" stroke-linecap="round" stroke-linejoin="round"/>
<path d="M3.83337 27.7917C5.75004 25.875 9.58337 23 13.4167 23C17.25 23 26.3542 26.8333 27.7917 28.75C29.2292 30.6667 24.9167 33.5417 24.9167 33.5417" stroke="#382A4D" stroke-width="3.83333" stroke-linecap="round" stroke-linejoin="round"/>
<path d="M15.3334 17.25V9.58329C15.3334 8.52475 16.1915 7.66663 17.25 7.66663H40.25C41.3086 7.66663 42.1667 8.52475 42.1667 9.58329V24.9166" stroke="#382A4D" stroke-width="3.83333" stroke-linecap="round" stroke-linejoin="round"/>
<path d="M33.5417 7.66663H23.9584V16.2916H33.5417V7.66663Z" fill="#2F88FF" stroke="#382A4D" stroke-width="3.83333" stroke-linecap="round" stroke-linejoin="round"/>
</svg>
