<svg width="46" height="46" viewBox="0 0 46 46" fill="none" xmlns="http://www.w3.org/2000/svg">
<path d="M23 43.125H35.5161C36.2415 43.125 36.94 42.8508 37.4716 42.3575C38.0033 41.8641 38.3289 41.188 38.383 40.4647L41.5977 10.0625" fill="#FEFEFF"/>
<path d="M23 43.125H35.5161C36.2414 43.125 36.94 42.8508 37.4716 42.3575C38.0033 41.8641 38.3289 41.188 38.383 40.4647L41.5977 10.0625" stroke="#382A4D" stroke-width="2.875" stroke-miterlimit="10" stroke-linecap="round"/>
<path d="M33.0625 10.0625L34.5 4.3125L38.7227 2.875" stroke="#382A4D" stroke-width="2.875" stroke-linecap="round" stroke-linejoin="round"/>
<path d="M20.125 10.0625H43.125" stroke="#382A4D" stroke-width="2.875" stroke-miterlimit="10" stroke-linecap="round"/>
<path d="M28.9297 37.375C28.9297 40.551 27.0744 43.125 23.8984 43.125H12.0391C8.86309 43.125 7.00781 40.551 7.00781 37.375M30.1875 30.1875C31.775 30.1875 33.0625 31.7966 33.0625 33.7812C33.0625 35.7659 31.775 37.375 30.1875 37.375H5.75C4.16246 37.375 2.875 35.7659 2.875 33.7812C2.875 31.7966 4.16246 30.1875 5.75 30.1875" fill="#FEFEFF"/>
<path d="M28.9297 37.375C28.9297 40.551 27.0744 43.125 23.8984 43.125H12.0391C8.86309 43.125 7.00781 40.551 7.00781 37.375M30.1875 30.1875C31.775 30.1875 33.0625 31.7966 33.0625 33.7812C33.0625 35.7659 31.775 37.375 30.1875 37.375H5.75C4.16246 37.375 2.875 35.7659 2.875 33.7812C2.875 31.7966 4.16246 30.1875 5.75 30.1875" stroke="#382A4D" stroke-width="2.875" stroke-miterlimit="10" stroke-linecap="round"/>
<path d="M30.9062 30.1875H16.1099C15.9195 30.1876 15.737 30.2632 15.6023 30.3977L13.1918 32.8082C13.1584 32.8417 13.1187 32.8682 13.0751 32.8862C13.0315 32.9043 12.9847 32.9136 12.9375 32.9136C12.8903 32.9136 12.8435 32.9043 12.7999 32.8862C12.7563 32.8682 12.7166 32.8417 12.6832 32.8082L10.2727 30.3977C10.138 30.2632 9.95549 30.1876 9.76512 30.1875H5.03125C4.45938 30.1875 3.91093 29.9603 3.50655 29.5559C3.10218 29.1516 2.875 28.6031 2.875 28.0312C2.875 27.4594 3.10218 26.9109 3.50655 26.5066C3.91093 26.1022 4.45938 25.875 5.03125 25.875H30.9062C31.4781 25.875 32.0266 26.1022 32.4309 26.5066C32.8353 26.9109 33.0625 27.4594 33.0625 28.0312C33.0625 28.6031 32.8353 29.1516 32.4309 29.5559C32.0266 29.9603 31.4781 30.1875 30.9062 30.1875ZM5.75 24.7969V24.7771C5.75 19.8357 9.79297 17.25 14.7344 17.25H21.2031C26.1445 17.25 30.1875 19.8555 30.1875 24.7969V24.7771M21.6523 10.0625L22.3208 15.8098L21.6523 10.0625Z" fill="#FEFEFF"/>
<path d="M5.75 24.7969V24.7771C5.75 19.8357 9.79297 17.25 14.7344 17.25H21.2031C26.1445 17.25 30.1875 19.8555 30.1875 24.7969V24.7771M21.6523 10.0625L22.3208 15.8098M30.9062 30.1875H16.1099C15.9195 30.1876 15.737 30.2632 15.6023 30.3977L13.1918 32.8082C13.1584 32.8417 13.1187 32.8682 13.0751 32.8862C13.0315 32.9043 12.9847 32.9136 12.9375 32.9136C12.8903 32.9136 12.8435 32.9043 12.7999 32.8862C12.7563 32.8682 12.7166 32.8417 12.6832 32.8082L10.2727 30.3977C10.138 30.2632 9.95549 30.1876 9.76512 30.1875H5.03125C4.45938 30.1875 3.91093 29.9603 3.50655 29.5559C3.10218 29.1516 2.875 28.6031 2.875 28.0312C2.875 27.4594 3.10218 26.9109 3.50655 26.5066C3.91093 26.1022 4.45938 25.875 5.03125 25.875H30.9062C31.4781 25.875 32.0266 26.1022 32.4309 26.5066C32.8353 26.9109 33.0625 27.4594 33.0625 28.0312C33.0625 28.6031 32.8353 29.1516 32.4309 29.5559C32.0266 29.9603 31.4781 30.1875 30.9062 30.1875Z" stroke="#382A4D" stroke-width="2.875" stroke-miterlimit="10" stroke-linecap="round"/>
</svg>
