<svg width="28" height="28" viewBox="0 0 28 28" fill="none" xmlns="http://www.w3.org/2000/svg">
<g clip-path="url(#clip0_68_822)">
<path d="M24.2375 5.05313L17.8719 13.8906C17.7844 14.0438 17.7844 14.2188 17.8719 14.3719L24.2375 23.625C24.5 24.0188 24.0188 24.4781 23.625 24.2375L14.2407 17.9813C14.0875 17.8938 13.9125 17.8938 13.7594 17.9813L4.37503 24.2375C3.98128 24.5 3.5219 24.0188 3.76253 23.625L10.1282 14.3719C10.2157 14.2188 10.2157 14.0438 10.1282 13.8906L3.76253 5.05313C3.50003 4.65938 3.98128 4.2 4.37503 4.44063L13.7594 10.2594C13.9125 10.3469 14.0875 10.3469 14.2407 10.2594L23.625 4.44063C24.0188 4.2 24.4782 4.65938 24.2375 5.05313Z" fill="#F77E00"/>
<path d="M14.4375 1.22502L16.275 11.3969C16.3188 11.5719 16.45 11.7031 16.6031 11.725L26.775 13.5625C27.2344 13.6719 27.2344 14.3281 26.775 14.4156L16.5813 16.2531C16.4063 16.2969 16.275 16.4282 16.2531 16.5813L14.4375 26.775C14.35 27.2344 13.6719 27.2344 13.5844 26.775L11.7469 16.5813C11.7031 16.4063 11.5719 16.275 11.4188 16.2531L1.22502 14.4375C0.765649 14.35 0.765649 13.6719 1.22502 13.5844L11.3969 11.7469C11.5719 11.7031 11.7031 11.5719 11.725 11.4188L13.5625 1.22502C13.6719 0.765649 14.3281 0.765649 14.4375 1.22502Z" fill="#FF9800"/>
<path opacity="0.75" d="M11.5172 12.4731C11.0228 12.7881 10.139 12.7881 10.139 13.1687C10.139 13.4487 10.6444 13.4487 11.1825 13.4487C11.9459 13.4378 12.5847 13.37 12.8975 13.1118C13.2125 12.8537 13.3131 12.4271 13.3459 11.5653C13.3787 10.5328 13.3 10.3534 13.044 10.3534C12.705 10.3534 12.4928 11.8671 11.5172 12.4731Z" fill="#FFBD52"/>
</g>
<defs>
<clipPath id="clip0_68_822">
<rect width="28" height="28" fill="white"/>
</clipPath>
</defs>
</svg>
