<svg width="28" height="28" viewBox="0 0 28 28" fill="none" xmlns="http://www.w3.org/2000/svg">
<path d="M13.9125 25.9875C7.80935 25.9875 1.22498 22.1594 1.22498 13.7594C1.22498 5.35938 7.80935 1.53125 13.9125 1.53125C17.3031 1.53125 20.4312 2.64687 22.75 4.68125C25.2656 6.9125 26.6 10.0625 26.6 13.7594C26.6 17.4563 25.2656 20.5844 22.75 22.8156C20.4312 24.85 17.2812 25.9875 13.9125 25.9875Z" fill="url(#paint0_radial_68_812)"/>
<path d="M24.3884 6.49036C25.5544 8.37161 26.1625 10.6116 26.1625 13.1032C26.1625 16.8 24.8281 19.9282 22.3125 22.1594C19.9937 24.1938 16.8437 25.3313 13.475 25.3313C9.52436 25.3313 5.38123 23.7235 2.93561 20.3132C5.28936 24.1763 9.71686 25.9875 13.9125 25.9875C17.2812 25.9875 20.4312 24.85 22.75 22.8157C25.2656 20.5844 26.6 17.4563 26.6 13.7594C26.6 10.9725 25.8409 8.49629 24.3884 6.49036Z" fill="#EB8F00"/>
<path d="M16.124 16.1875C16.0632 16.0922 16.0253 15.984 16.0133 15.8715C16.0014 15.759 16.0157 15.6453 16.0551 15.5393C16.0945 15.4333 16.158 15.3379 16.2406 15.2606C16.3232 15.1832 16.4226 15.1261 16.5309 15.0938C17.2703 14.8028 18.0578 14.6453 18.8519 14.63C19.6459 14.6431 20.4334 14.7919 21.1794 15.0675C21.2736 15.0944 21.3615 15.1397 21.4382 15.2007C21.5149 15.2618 21.5787 15.3373 21.6261 15.4231C21.6734 15.5089 21.7034 15.6032 21.7142 15.7006C21.725 15.798 21.7165 15.8966 21.689 15.9906C21.6715 16.0497 21.6475 16.1088 21.6169 16.1613C21.5085 16.3227 21.3495 16.4434 21.1649 16.5044C20.9803 16.5654 20.7807 16.5632 20.5975 16.4981C20.0484 16.2881 19.4687 16.17 18.8803 16.1481C18.2897 16.1678 17.7056 16.2859 17.1544 16.4981C16.7803 16.6513 16.3515 16.5222 16.124 16.1875ZM6.3678 16.1875C6.31632 16.1061 6.28141 16.0154 6.26509 15.9205C6.24877 15.8256 6.25136 15.7284 6.2727 15.6345C6.29404 15.5406 6.33372 15.4518 6.38946 15.3733C6.44519 15.2948 6.51589 15.228 6.59749 15.1769C6.65436 15.1419 6.71561 15.1134 6.78124 15.0938C7.52161 14.8014 8.30847 14.6443 9.10436 14.63C9.89842 14.6431 10.6859 14.7919 11.4297 15.0675C11.8256 15.1834 12.0531 15.5991 11.9394 15.995C11.9219 16.0541 11.8978 16.1088 11.8672 16.1613C11.7587 16.3231 11.5993 16.4442 11.4143 16.5052C11.2292 16.5662 11.0291 16.5637 10.8456 16.4981C10.2965 16.2881 9.71686 16.17 9.12842 16.1481C8.5378 16.1678 7.95374 16.2859 7.40249 16.4981C7.02842 16.6534 6.5953 16.5244 6.3678 16.1875ZM14 19.075C16.3625 19.075 17.8937 20.8031 18.3094 21.6125C18.4625 21.9188 18.4625 22.1813 18.3312 22.2906C18.1912 22.3781 18.0119 22.3781 17.8719 22.2906C17.8019 22.2622 17.7362 22.225 17.675 22.1813C16.6031 21.4114 15.3196 20.9913 14 20.9781C12.6853 20.9956 11.4034 21.4069 10.325 22.1594C10.2637 22.2031 10.1981 22.2403 10.1281 22.2688C9.98811 22.3563 9.80874 22.3563 9.66874 22.2688C9.53749 22.1375 9.53749 21.8969 9.69061 21.5906C10.1062 20.8031 11.6375 19.075 14 19.075Z" fill="#422B0D"/>
<path d="M6.4881 12.3637C4.63529 12.3637 3.20685 10.57 3.20685 9.03215C3.20685 7.94933 3.69029 6.6959 4.37279 4.95902C4.4581 4.70308 4.57185 4.44715 4.6856 4.16058C5.01154 3.34683 5.30029 2.46527 5.73779 1.70183C5.80451 1.58231 5.90193 1.48275 6.01999 1.41345C6.13804 1.34415 6.27246 1.30762 6.40935 1.30762C6.54624 1.30762 6.68065 1.34415 6.79871 1.41345C6.91676 1.48275 7.01418 1.58231 7.08091 1.70183C7.48779 2.45215 7.7656 3.26371 8.18997 4.2109C9.38654 6.8884 9.72122 7.97121 9.72122 9.05402C9.76279 10.57 8.31247 12.3637 6.4881 12.3637Z" fill="#44B3E6"/>
<path d="M8.48969 10.3096C8.07187 10.9659 7.1225 10.8346 7.1225 9.76058C7.1225 9.0737 7.2625 5.54964 7.85093 6.04183C8.81125 6.84464 9.08469 9.4062 8.48969 10.3096Z" fill="#81D4FA"/>
<defs>
<radialGradient id="paint0_radial_68_812" cx="0" cy="0" r="1" gradientUnits="userSpaceOnUse" gradientTransform="translate(13.9125 13.7594) scale(12.46)">
<stop offset="0.5" stop-color="#FDE030"/>
<stop offset="0.92" stop-color="#F7C02B"/>
<stop offset="1" stop-color="#F4A223"/>
</radialGradient>
</defs>
</svg>
