<svg width="28" height="28" viewBox="0 0 28 28" fill="none" xmlns="http://www.w3.org/2000/svg">
<path d="M13.9125 25.9875C7.80935 25.9875 1.22498 22.1594 1.22498 13.7594C1.22498 5.35938 7.80935 1.53125 13.9125 1.53125C17.3031 1.53125 20.4312 2.64687 22.75 4.68125C25.2656 6.9125 26.6 10.0625 26.6 13.7594C26.6 17.4563 25.2656 20.5844 22.75 22.8156C20.4312 24.85 17.2812 25.9875 13.9125 25.9875Z" fill="url(#paint0_radial_68_792)"/>
<path d="M24.3885 6.49036C25.5544 8.37161 26.1625 10.6116 26.1625 13.1032C26.1625 16.8 24.8282 19.9282 22.3125 22.1594C19.9938 24.1938 16.8438 25.3313 13.475 25.3313C9.52442 25.3313 5.38129 23.7235 2.93567 20.3132C5.28942 24.1763 9.71692 25.9875 13.9125 25.9875C17.2813 25.9875 20.4313 24.85 22.75 22.8157C25.2657 20.5844 26.6 17.4563 26.6 13.7594C26.6 10.9725 25.841 8.49629 24.3885 6.49036Z" fill="#EB8F00"/>
<path d="M22.2468 15.7959C22.0985 15.529 21.8589 15.3246 21.572 15.2202C21.2851 15.1157 20.9702 15.1182 20.6849 15.2272C18.7162 15.8397 16.3099 16.065 13.8862 16.0672C11.5479 16.0771 9.22044 15.7493 6.97589 15.0937C6.69068 14.9847 6.37574 14.9822 6.08884 15.0867C5.80195 15.1912 5.56235 15.3956 5.41401 15.6625C5.11651 16.2115 5.33308 16.8481 5.58245 17.3972C6.99995 20.4859 10.0843 22.3322 13.8687 22.3431H13.9037C17.6881 22.3431 20.6718 20.615 22.0784 17.5306C22.3278 16.9815 22.5443 16.345 22.2468 15.7959Z" fill="white"/>
<path d="M10.7187 12.4447L10.6859 12.401L10.5918 12.2806L10.4759 12.156C10.4278 12.1013 10.3709 12.0488 10.3162 11.9919C10.2615 11.935 10.1937 11.8803 10.1325 11.8344C10.0756 11.7906 10.0143 11.7491 9.9487 11.7163C9.90495 11.6922 9.85683 11.6725 9.80651 11.6616C9.79129 11.6593 9.7758 11.6593 9.76058 11.6616H9.72339H9.78245H9.66214C9.62933 11.6616 9.6512 11.6616 9.66214 11.6616H9.67964H9.65558C9.60526 11.6725 9.55714 11.69 9.5112 11.7163C9.44776 11.7513 9.38433 11.7906 9.32745 11.8344C9.26401 11.8825 9.20276 11.935 9.14589 11.9919C9.02995 12.1035 8.92714 12.2106 8.86151 12.296L8.74776 12.4272L8.69745 12.4863C8.54508 12.6562 8.33526 12.7639 8.10833 12.7885C7.8814 12.8131 7.65337 12.753 7.46808 12.6197C7.34806 12.5361 7.25417 12.4203 7.19726 12.2856C7.14036 12.1508 7.12276 12.0028 7.14651 11.8585C7.14651 11.8585 7.16183 11.771 7.20339 11.6156C7.26901 11.3947 7.36089 11.1803 7.47683 10.9791C7.66276 10.651 7.91433 10.3644 8.2162 10.1369C8.41526 9.98377 8.6362 9.86127 8.87245 9.77596C8.93808 9.74971 9.00589 9.73002 9.0737 9.71252C9.14589 9.69064 9.21808 9.67533 9.29245 9.66221L9.42589 9.64252L9.53745 9.62939H9.94214C10.0165 9.62939 10.0887 9.64908 10.1609 9.66002C10.3009 9.68408 10.4409 9.72127 10.5743 9.77158C10.8106 9.85689 11.0315 9.97939 11.2306 10.1325C11.5325 10.36 11.784 10.6466 11.97 10.9747C12.0378 11.0885 12.0968 11.2088 12.145 11.3313C12.1865 11.4297 12.2215 11.5281 12.25 11.631C12.2653 11.6835 12.2784 11.736 12.285 11.7885V11.8431C12.3506 12.2894 12.04 12.705 11.5937 12.7706C11.5828 12.7728 11.5718 12.7728 11.5609 12.775C11.2415 12.821 10.9221 12.6941 10.7187 12.4447ZM19.3506 12.4447L19.3156 12.401L19.2215 12.2806L19.1056 12.156C19.0575 12.1013 19.0006 12.0488 18.9459 11.9919C18.8912 11.935 18.8234 11.8803 18.7621 11.8344C18.7053 11.7906 18.644 11.7491 18.5784 11.7163C18.5346 11.6922 18.4865 11.6725 18.4362 11.6616C18.421 11.6593 18.4055 11.6593 18.3903 11.6616H18.3531H18.4121H18.2918C18.259 11.6616 18.2809 11.6616 18.2918 11.6616H18.3093H18.2853C18.235 11.6725 18.1868 11.69 18.1409 11.7163C18.0775 11.7491 18.0162 11.7906 17.9593 11.8344C17.8937 11.8825 17.8325 11.935 17.7756 11.9919C17.6596 12.1035 17.5568 12.2106 17.4912 12.296L17.3775 12.4272L17.3293 12.4863C17.1765 12.6562 16.9663 12.7638 16.7391 12.7884C16.5118 12.8131 16.2835 12.753 16.0978 12.6197C15.9777 12.5361 15.8839 12.4203 15.8269 12.2856C15.77 12.1508 15.7524 12.0028 15.7762 11.8585C15.7762 11.8585 15.7915 11.771 15.8353 11.6156C15.9009 11.3925 15.9906 11.1781 16.1087 10.9791C16.2946 10.651 16.544 10.3644 16.8459 10.1369C17.045 9.98377 17.2659 9.86127 17.5021 9.77596C17.5678 9.74971 17.6356 9.73002 17.7034 9.71252C17.7756 9.69064 17.8478 9.67533 17.9221 9.66221L18.0578 9.64252L18.1671 9.62939H18.5718C18.6462 9.62939 18.7184 9.64908 18.7906 9.66002C18.9328 9.68408 19.0706 9.72127 19.204 9.77158C19.4403 9.85689 19.6612 9.97939 19.8603 10.1325C20.1621 10.36 20.4137 10.6466 20.5996 10.9747C20.6675 11.0885 20.7265 11.2088 20.7746 11.3313C20.8162 11.4275 20.8512 11.526 20.8796 11.6266C20.895 11.6791 20.9081 11.7316 20.9146 11.7841V11.8388C20.948 12.0531 20.8948 12.272 20.7668 12.4471C20.6388 12.6223 20.4465 12.7394 20.2321 12.7728C20.2256 12.7728 20.219 12.775 20.2125 12.775C19.8865 12.8297 19.5562 12.7028 19.3506 12.4447Z" fill="#422B0D"/>
<path d="M22.0697 16.5878C22.05 16.6009 20.7134 17.6006 18.2 18.2481V15.7762C17.9134 15.82 17.6203 15.8571 17.325 15.89V18.445C16.3078 18.6462 15.2731 18.7578 14.2363 18.7796V16.0628H13.3613V18.7796C13.4553 18.7818 13.4553 18.784 13.3613 18.784L13.3569 18.7796C12.3441 18.7621 11.3356 18.6659 10.3381 18.4887V15.8221C10.0406 15.7828 9.7497 15.7368 9.46313 15.6865V18.305C6.87751 17.6903 5.57813 16.7081 5.56063 16.6928C5.48815 16.6356 5.39915 16.6034 5.30688 16.6009C5.36813 16.8765 5.46001 17.1456 5.58251 17.4015C5.65907 17.57 5.7422 17.7318 5.8297 17.8937C6.97321 18.4996 8.19637 18.9415 9.46313 19.2062V21.3631C9.74751 21.5009 10.0406 21.6256 10.3381 21.7328V19.3812C11.3356 19.5475 12.3463 19.6393 13.3569 19.6546L13.3613 19.659H13.3569V22.33C13.5253 22.33 13.6959 22.3475 13.8688 22.3475H14.2319V19.6546C15.2688 19.635 16.3034 19.53 17.325 19.3418V21.794C17.6225 21.6934 17.9156 21.5753 18.2 21.4418V19.1559C19.5344 18.8496 20.8184 18.3487 22.0084 17.6706C22.0303 17.6225 22.0566 17.5787 22.0784 17.5306C22.2381 17.2068 22.3431 16.859 22.3847 16.5003C22.2731 16.4871 22.1594 16.52 22.0697 16.5878Z" fill="#B3B3B3"/>
<path d="M22.3365 15.6691C22.1863 15.4012 21.9451 15.1959 21.6566 15.0904C21.3681 14.9849 21.0514 14.9861 20.7637 15.0938C18.5193 15.7478 16.1918 16.0738 13.8556 16.0628C11.5175 16.0742 9.19005 15.7478 6.94528 15.0938C6.66035 14.9854 6.34591 14.9832 6.0595 15.0876C5.7731 15.1921 5.53387 15.3962 5.3856 15.6625C5.0881 16.2116 5.30247 16.8481 5.55403 17.3972C5.6656 17.6444 5.79028 17.8872 5.9281 18.1213C5.9281 18.1213 5.46872 16.4194 5.86685 15.925C5.93357 15.8217 6.0239 15.7356 6.13039 15.674C6.23687 15.6124 6.35648 15.577 6.47935 15.5706C6.58216 15.5706 6.68278 15.5881 6.78122 15.6188C9.06497 16.2903 11.434 16.6294 13.8162 16.625H13.8928C16.275 16.6294 18.644 16.2903 20.9278 15.6188C21.0262 15.5881 21.1268 15.5706 21.2297 15.5706C21.479 15.5838 21.7087 15.715 21.8443 15.925C22.249 16.4194 21.7831 18.1278 21.7831 18.1278C21.9187 17.8938 22.0543 17.6531 22.1681 17.4038C22.4175 16.8547 22.634 16.2203 22.3365 15.6691Z" fill="#EB8F00"/>
<defs>
<radialGradient id="paint0_radial_68_792" cx="0" cy="0" r="1" gradientUnits="userSpaceOnUse" gradientTransform="translate(13.9125 13.7594) scale(12.46)">
<stop offset="0.5" stop-color="#FDE030"/>
<stop offset="0.92" stop-color="#F7C02B"/>
<stop offset="1" stop-color="#F4A223"/>
</radialGradient>
</defs>
</svg>
