<svg width="28" height="28" viewBox="0 0 28 28" fill="none" xmlns="http://www.w3.org/2000/svg">
<path d="M13.9125 25.9875C7.80935 25.9875 1.22498 22.1594 1.22498 13.7594C1.22498 5.35938 7.80935 1.53125 13.9125 1.53125C17.3031 1.53125 20.4312 2.64687 22.75 4.68125C25.2656 6.9125 26.6 10.0625 26.6 13.7594C26.6 17.4563 25.2656 20.5844 22.75 22.8156C20.4312 24.85 17.2812 25.9875 13.9125 25.9875Z" fill="url(#paint0_radial_68_803)"/>
<path d="M24.3885 6.49036C25.5544 8.37161 26.1625 10.6116 26.1625 13.1032C26.1625 16.8 24.8282 19.9282 22.3125 22.1594C19.9938 24.1938 16.8438 25.3313 13.475 25.3313C9.52442 25.3313 5.38129 23.7235 2.93567 20.3132C5.28942 24.1763 9.71692 25.9875 13.9125 25.9875C17.2813 25.9875 20.4313 24.85 22.75 22.8157C25.2657 20.5844 26.6 17.4563 26.6 13.7594C26.6 10.9725 25.841 8.49629 24.3885 6.49036Z" fill="#EB8F00"/>
<path d="M8.48096 20.0309L9.82189 21.2844L11.9 19.2719L14 21.2844L16.0781 19.2719L18.1781 21.2844L19.541 20.009" stroke="#35220B" stroke-width="1.75" stroke-linecap="round" stroke-linejoin="round"/>
<path d="M7.04372 15.1156L9.71247 14.5906L6.97809 13.4531C6.95397 13.4301 6.92349 13.4149 6.89059 13.4094C6.32184 13.0594 6.21247 12.3375 6.73747 11.9C6.95151 11.7346 7.2115 11.6395 7.48174 11.6278C7.75199 11.616 8.01925 11.6882 8.24684 11.8344C9.34059 12.4906 11.9 14.0656 12.9062 14.6781C13.0178 14.7263 13.0681 14.8553 13.02 14.9647C12.9915 15.0303 12.9325 15.0785 12.8625 15.0938L7.85309 16.975C7.80934 16.9969 7.78747 16.9969 7.74372 17.0188C7.08747 17.1938 6.36559 16.8219 6.25622 16.1875C6.14684 15.7063 6.51872 15.2469 7.04372 15.1156ZM20.9562 15.05L18.2875 14.525L21.0437 13.3875C21.0678 13.3635 21.0984 13.3503 21.1312 13.3438C21.7 12.9938 21.8093 12.2719 21.2843 11.8344C21.0703 11.669 20.8103 11.5739 20.5401 11.5622C20.2698 11.5504 20.0026 11.6226 19.775 11.7688C18.6812 12.425 16.1218 14 15.1156 14.6125C15.004 14.6607 14.9537 14.7897 15.0018 14.8991C15.0303 14.9647 15.0893 15.0128 15.1593 15.0281L20.1687 16.9094C20.2125 16.9313 20.2343 16.9313 20.2781 16.9531C20.9343 17.1281 21.6562 16.7563 21.7656 16.1219C21.8531 15.6406 21.4812 15.2032 20.9562 15.05Z" fill="#422B0D"/>
<defs>
<radialGradient id="paint0_radial_68_803" cx="0" cy="0" r="1" gradientUnits="userSpaceOnUse" gradientTransform="translate(13.9125 13.7594) scale(12.46)">
<stop offset="0.5" stop-color="#FDE030"/>
<stop offset="0.92" stop-color="#F7C02B"/>
<stop offset="1" stop-color="#F4A223"/>
</radialGradient>
</defs>
</svg>
