<svg width="46" height="46" viewBox="0 0 46 46" fill="none" xmlns="http://www.w3.org/2000/svg">
<g clip-path="url(#clip0_68_761)">
<path d="M6.09308 29.4438L8.07683 8.60583H17.181L18.8523 26.1414M1.4375 44.5433H44.5625V22.2333C44.562 21.909 44.4873 21.5891 44.3442 21.2981C44.201 21.0071 43.9933 20.7526 43.7368 20.5542C43.4803 20.3558 43.1818 20.2186 42.8642 20.1532C42.5465 20.0878 42.2181 20.0958 41.9041 20.1767L2.875 30.2833C2.46369 30.39 2.09948 30.6303 1.83962 30.9665C1.57977 31.3027 1.43899 31.7157 1.43942 32.1406L1.4375 44.5433ZM15.3429 1.68475C17.3213 1.64705 19.283 2.05379 21.0833 2.875C35.3223 8.95466 41.2083 1.45667 41.2083 1.45667" fill="white"/>
<path d="M6.09308 29.4438L8.07683 8.60583H17.181L18.8523 26.1414M15.3429 1.68475C17.3213 1.64705 19.283 2.05379 21.0833 2.875C35.3222 8.95466 41.2083 1.45667 41.2083 1.45667M1.4375 44.5433H44.5625V22.2333C44.5619 21.909 44.4873 21.5891 44.3442 21.2981C44.201 21.0071 43.9933 20.7526 43.7368 20.5542C43.4803 20.3558 43.1818 20.2186 42.8642 20.1532C42.5465 20.0878 42.2181 20.0958 41.9041 20.1767L2.875 30.2833C2.46369 30.39 2.09948 30.6303 1.83962 30.9665C1.57977 31.3027 1.43899 31.7157 1.43942 32.1406L1.4375 44.5433Z" stroke="#382A4D" stroke-width="2.875" stroke-linecap="round" stroke-linejoin="round"/>
<path d="M37.8542 44.5452H28.2709V35.9202C28.2709 35.4119 28.4728 34.9244 28.8322 34.5649C29.1917 34.2055 29.6792 34.0035 30.1875 34.0035H35.9375C36.4459 34.0035 36.9334 34.2055 37.2928 34.5649C37.6523 34.9244 37.8542 35.4119 37.8542 35.9202V44.5452ZM21.5625 36.8766H18.6875H21.5625ZM11.9792 36.8766H9.10419H11.9792Z" fill="white"/>
<path d="M21.5625 36.8766H18.6875M11.9792 36.8766H9.10419M37.8542 44.5452H28.2709V35.9202C28.2709 35.4119 28.4728 34.9244 28.8322 34.5649C29.1917 34.2055 29.6792 34.0035 30.1875 34.0035H35.9375C36.4459 34.0035 36.9334 34.2055 37.2928 34.5649C37.6523 34.9244 37.8542 35.4119 37.8542 35.9202V44.5452Z" stroke="#382A4D" stroke-width="2.875" stroke-linecap="round" stroke-linejoin="round"/>
</g>
<defs>
<clipPath id="clip0_68_761">
<rect width="46" height="46" fill="white"/>
</clipPath>
</defs>
</svg>
