<svg width="96" height="96" viewBox="0 0 96 96" fill="none" xmlns="http://www.w3.org/2000/svg">
<path d="M49.088 49.9121C52.1279 49.9522 55.1455 49.3881 57.9655 48.2526C60.7856 47.117 63.3521 45.4327 65.5159 43.2972C67.6797 41.1617 69.3979 38.6178 70.5705 35.8129C71.7432 33.008 72.3471 29.9982 72.3471 26.9581C72.3471 23.9179 71.7432 20.9081 70.5705 18.1033C69.3979 15.2984 67.6797 12.7544 65.5159 10.6189C63.3521 8.48349 60.7856 6.79911 57.9655 5.66357C55.1455 4.52802 52.1279 3.96395 49.088 4.00408C43.0527 4.08375 37.2916 6.53717 33.0519 10.8332C28.8122 15.1293 26.4351 20.9223 26.4351 26.9581C26.4351 32.9939 28.8122 38.7869 33.0519 43.0829C37.2916 47.379 43.0527 49.8324 49.088 49.9121Z" fill="#FFEF5E"/>
<path d="M49.092 4.00002C44.524 4.003 40.0607 5.36852 36.2729 7.92193C32.4852 10.4753 29.5452 14.1006 27.829 18.334C26.1128 22.5674 25.6984 27.2165 26.6388 31.6867C27.5792 36.1569 29.8316 40.2449 33.108 43.428L65.564 10.968C63.427 8.75997 60.8671 7.00501 58.0371 5.80785C55.2071 4.61068 52.1649 3.99584 49.092 4.00002Z" fill="#FFF9BF"/>
<path d="M66.532 55.336C62.256 58.188 60.052 63.392 66.532 67.764C70.084 76.644 76.692 74.272 80.6 70.136C82.7939 66.9808 84.2141 63.3534 84.7457 59.5474C85.2773 55.7413 84.9054 51.8636 83.66 48.228C77.42 52.944 71.856 51.784 66.532 55.336ZM19.852 70.8C23.032 74.272 28.052 75.528 31.092 69.056C38.62 64.596 35.532 58.96 31.26 56.004C28.0987 54.4636 24.619 53.6891 21.1028 53.7433C17.5865 53.7975 14.1324 54.6789 11.02 56.316C16.156 61.296 15.892 66.484 19.852 70.8Z" fill="#78EB7B" stroke="#191919" stroke-linecap="round" stroke-linejoin="round"/>
<path d="M49.088 49.9121C52.1279 49.9522 55.1454 49.3881 57.9655 48.2526C60.7856 47.117 63.3521 45.4327 65.5159 43.2972C67.6797 41.1617 69.3978 38.6178 70.5705 35.8129C71.7432 33.008 72.347 29.9982 72.347 26.9581C72.347 23.918 71.7432 20.9081 70.5705 18.1033C69.3978 15.2984 67.6797 12.7544 65.5159 10.6189C63.3521 8.48349 60.7856 6.79911 57.9655 5.66357C55.1454 4.52802 52.1279 3.96395 49.088 4.00408C43.0527 4.08375 37.2916 6.53717 33.0519 10.8332C28.8122 15.1293 26.435 20.9223 26.435 26.9581C26.435 32.9939 28.8122 38.7869 33.0519 43.0829C37.2916 47.379 43.0527 49.8324 49.088 49.9121ZM49.088 49.9121L49.092 92.0001C49.092 92.0001 58.652 70.9601 73.96 61.3921M49.088 88.1761C49.088 88.1761 45.264 74.7841 26.132 63.3041" stroke="#191919" stroke-linecap="round" stroke-linejoin="round"/>
<path d="M54.832 15.48H47.052C45.8619 15.4839 44.71 15.901 43.7933 16.6601C42.8766 17.4192 42.252 18.4731 42.0262 19.6416C41.8004 20.8102 41.9875 22.0209 42.5554 23.0669C43.1234 24.1128 44.037 24.929 45.14 25.376L53.036 28.536C54.1416 28.9813 55.0579 29.7974 55.6278 30.8442C56.1978 31.8911 56.3858 33.1036 56.1598 34.2739C55.9338 35.4442 55.3077 36.4995 54.389 37.2588C53.4702 38.0182 52.316 38.4343 51.124 38.436H43.352M49.092 42.26V38.44M49.092 15.48V11.652" stroke="#191919" stroke-linecap="round" stroke-linejoin="round"/>
</svg>
